<?xml version="1.0" standalone="no"?>
<!DOCTYPE svg PUBLIC "-//W3C//DTD SVG 20010904//EN"
 "http://www.w3.org/TR/2001/REC-SVG-20010904/DTD/svg10.dtd">
<svg version="1.0" xmlns="http://www.w3.org/2000/svg"
 width="900.000000pt" height="520.000000pt" viewBox="0 0 900.000000 520.000000"
 preserveAspectRatio="xMidYMid meet">

<g transform="translate(0.000000,520.000000) scale(0.100000,-0.100000)"
fill="#F00000" stroke="none">
<path d="M2827 5110 c-111 -19 -231 -110 -282 -215 -14 -28 -30 -81 -36 -116
-6 -41 -9 -829 -7 -2184 3 -2004 4 -2122 21 -2165 45 -113 142 -209 250 -247
49 -17 140 -18 1732 -18 l1680 0 54 23 c110 47 190 127 234 234 l22 53 3 1335
c2 947 0 1354 -8 1400 -22 129 3 101 -897 1002 -897 897 -871 874 -997 897
-71 13 -1693 13 -1769 1z m1803 -171 c65 -29 1660 -1624 1689 -1689 20 -44 21
-62 21 -1395 0 -1337 -1 -1350 -21 -1395 -27 -60 -54 -88 -114 -116 l-50 -24
-1653 0 c-1461 0 -1657 2 -1689 15 -61 26 -104 65 -129 119 l-24 51 0 2135 c0
2127 1 2135 21 2180 27 60 54 88 114 116 l50 24 870 0 c852 0 871 -1 915 -21z"/>
<path d="M4295 3549 c-79 -24 -98 -64 -103 -213 -5 -134 11 -269 54 -451 53
-230 51 -205 19 -282 -55 -132 -187 -400 -303 -615 l-117 -218 -100 -52 c-330
-173 -537 -393 -485 -517 8 -21 30 -37 83 -62 68 -31 73 -32 126 -21 134 28
295 200 481 513 l64 107 100 31 c218 66 531 139 728 171 68 10 68 10 145 -28
163 -82 353 -143 499 -163 151 -20 227 13 254 109 24 89 3 168 -58 209 -80 53
-317 71 -584 43 l-117 -12 -62 37 c-159 97 -331 311 -419 522 l-32 76 21 131
c51 324 62 497 37 572 -34 102 -124 146 -231 113z m128 -110 c44 -91 48 -295
8 -401 -13 -32 -26 -58 -30 -58 -34 0 -64 442 -34 493 10 18 39 0 56 -34z m29
-1061 c58 -92 170 -221 237 -273 28 -22 51 -42 51 -46 0 -4 -28 -12 -62 -18
-110 -21 -359 -88 -475 -129 -62 -21 -113 -35 -113 -31 0 4 16 36 36 71 73
128 173 336 239 493 19 46 11 52 87 -67z m1110 -402 c138 -32 148 -106 14
-106 -50 0 -122 18 -237 60 -149 53 -146 59 21 60 87 0 168 -6 202 -14z
m-1821 -368 c-51 -82 -146 -210 -195 -264 -57 -63 -132 -121 -143 -111 -10 11
58 113 129 195 55 63 213 211 226 212 2 0 -5 -15 -17 -32z"/>
</g>
</svg>
